PathFileType	4	(X/Y/Z)	C:/Users/opensim2020/Desktop/walking_exp_matlab/subject06_walking22_straight_02.trc																																																																																																																																		
DataRate	CameraRate	NumFrames	NumMarkers	Units	OrigDataRate	OrigDataStartFrame	OrigNumFrames																																																																																																																														
100	100	4	44	mm	100	1259	81																																																																																																																														
Frame#	Time	LFHD			RFHD			LBHD			RBHD			C7			T10			CLAV			STRN			RBAK			LSHO			LUPA			LELB			LFRM			LWRA			LWRB			LFIN			RSHO			RUPA			RELB			RFRM			RWRA			RWRB			RFIN			LASI			RASI			LPSI			RPSI			LTHI			LKNE			LTIB			LANK			LHEE			LTOE			RTHI			RKNE			RTIB			RANK			RHEE			RTOE			*39			*40			*41			*42			*43		
		X1	Y1	Z1	X2	Y2	Z2	X3	Y3	Z3	X4	Y4	Z4	X5	Y5	Z5	X6	Y6	Z6	X7	Y7	Z7	X8	Y8	Z8	X9	Y9	Z9	X10	Y10	Z10	X11	Y11	Z11	X12	Y12	Z12	X13	Y13	Z13	X14	Y14	Z14	X15	Y15	Z15	X16	Y16	Z16	X17	Y17	Z17	X18	Y18	Z18	X19	Y19	Z19	X20	Y20	Z20	X21	Y21	Z21	X22	Y22	Z22	X23	Y23	Z23	X24	Y24	Z24	X25	Y25	Z25	X26	Y26	Z26	X27	Y27	Z27	X28	Y28	Z28	X29	Y29	Z29	X30	Y30	Z30	X31	Y31	Z31	X32	Y32	Z32	X33	Y33	Z33	X34	Y34	Z34	X35	Y35	Z35	X36	Y36	Z36	X37	Y37	Z37	X38	Y38	Z38	X39	Y39	Z39	X40	Y40	Z40	X41	Y41	Z41	X42	Y42	Z42	X43	Y43	Z43	X44	Y44	Z44
																																																																																																																																					
1	0	-763.76434	1622.19128	899.44958	-766.90454	1618.14844	1032.30774	-899.18457	1572.60217	900.07452	-900.15009	1573.53882	1029.63098	-906.89752	1419.84082	950.94562	-961.03406	1093.87317	963.38745	-802.63629	1336.42322	971.09308	-773.98535	1158.58472	969.25	-1002.90332	1254.95605	1011.54919	-828.34552	1370.85583	802.13568	-793.13513	1172.81592	730.75708	-767.74658	1062.82483	718.20483	-661.91925	957.93024	721.23932	-554.55878	916.08978	790.66699	-586.86017	869.19232	748.91333	-502.87027	841.45074	764.43109	-879.05994	1373.84338	1120.37793	-994.76221	1207.94507	1193.24011	-1033.5188	1093.18884	1213.50439	-1068.99109	979.21857	1238.65906	-1060.79065	824.52325	1231.76318	-1119.44128	850.8764	1254.30542	-1117.82935	765.91644	1265.22278	-793.2005	915.94824	870.26581	-796.91974	933.46246	1091.1853	-948.69415	960.40942	896.3595	-946.66132	964.45837	1065.19165	-930.37128	618.06537	833.87994	-983.49695	462.36295	865.18414	-1118.21558	239.88535	888.2132	-1189.60425	86.85886	947.24115	-1234.36987	88.15878	991.25775	-1057.62598	32.69102	955.18488	-780.15326	617.29724	1170.14368	-716.58087	509.15277	1142.84668	-682.26227	252.18637	1142.46301	-629.53705	71.60659	1102.85742	-653.2229	38.68713	1053.13281	-472.26913	71.54069	1118.28784	-863.79437	1666.76794	954.99646	NaN	NaN	NaN	NaN	NaN	NaN	NaN	NaN	NaN	NaN	NaN	NaN
2	0.01	-748.26569	1620.5564	901.19977	-751.48419	1616.32251	1034.06885	-883.63062	1570.77271	901.67841	-884.50989	1571.51526	1031.05969	-891.30823	1417.90405	952.38458	-945.22003	1091.91016	964.36115	-786.80249	1334.57751	972.34692	-758.19684	1156.68762	970.29803	-986.98682	1252.61548	1012.62817	-812.63379	1369.229	803.55414	-777.31598	1171.37354	731.98242	-751.5423	1061.63892	719.52808	-643.69135	959.17529	722.98438	-535.56903	920.46643	792.7851	-566.54376	872.51288	751.3053	-481.88855	847.26855	766.81323	-863.46954	1371.84644	1121.73669	-979.73389	1206.35071	1194.49072	-1018.62842	1091.64941	1215.02625	-1054.64807	977.94781	1240.42871	-1046.81677	823.09998	1233.63843	-1105.79236	849.94684	1256.31409	-1104.83252	765.03754	1267.44238	-777.84131	914.23047	870.84003	-779.9848	931.87231	1091.81396	-933.44	958.37439	898.14374	-929.79974	962.58307	1067.06689	-916.9743	617.02197	834.30688	-971.26807	461.48248	865.19312	-1111.55054	242.15863	887.46918	-1187.32446	91.00771	945.70062	-1232.1637	93.80261	989.26923	-1057.20996	32.76947	955.04773	-761.35486	617.0957	1171.02051	-700.51068	507.97864	1142.46484	-660.98553	250.46819	1141.15027	-603.80896	71.50959	1101.46643	-626.80023	38.15424	1051.67712	-446.63391	75.49786	1116.36902	-848.38739	1664.89038	956.76587	NaN	NaN	NaN	NaN	NaN	NaN	NaN	NaN	NaN	NaN	NaN	NaN
3	0.02	-732.85651	1619.1958	902.98114	-736.08362	1614.82703	1035.86682	-868.01086	1569.1759	903.40698	-868.79163	1569.72021	1032.68396	-875.53979	1416.29919	953.93219	-929.42572	1090.24585	965.27051	-770.78265	1333.04053	973.77893	-742.17432	1155.12158	971.37946	-970.93036	1250.58386	1013.70728	-796.79095	1367.87695	805.06531	-761.55389	1170.12976	733.25903	-735.30524	1060.61011	720.79364	-626.09393	960.36188	724.61963	-517.39935	924.40112	794.79639	-547.12805	875.56738	753.67517	-461.79279	852.66553	769.13513	-847.70605	1370.06702	1123.22351	-964.55457	1204.81128	1195.62634	-1003.55664	1090.13794	1216.69385	-1039.70398	976.73358	1242.39246	-1032.80774	821.85492	1236.18567	-1091.3562	848.95319	1258.4137	-1090.8418	764.0968	1269.74133	-762.29553	912.75183	871.29907	-762.74255	930.62781	1092.55579	-917.76733	956.44287	899.85028	-913.3493	961.16705	1068.61975	-902.80035	616.10577	834.77838	-957.95752	460.60602	865.1228	-1104.12769	244.91719	886.52466	-1184.71301	95.88389	943.82916	-1229.36597	100.29961	987.06531	-1056.87854	32.53448	955.0318	-742.48804	616.99915	1171.29712	-684.58893	506.73959	1142.11035	-640.62738	249.13075	1140.11353	-581.21429	71.05503	1099.89514	-603.98615	37.59258	1050.19678	-423.90408	77.47122	1113.85474	-833.02356	1663.26904	958.59705	NaN	NaN	NaN	NaN	NaN	NaN	NaN	NaN	NaN	NaN	NaN	NaN
4	0.03	-717.52722	1618.32349	904.67822	-720.50861	1613.69067	1037.61377	-852.46216	1567.8717	905.09039	-853.42505	1568.23206	1034.77808	-859.58606	1415.04565	955.61658	-913.08221	1088.83789	966.08752	-753.67523	1332.12561	975.31561	-725.94202	1153.90637	972.50665	-954.7323	1248.98413	1014.92395	-780.8385	1366.74487	806.66174	-745.91809	1169.19531	734.62262	-719.76935	1059.85071	722.18677	-609.14807	961.47754	726.18103	-499.9581	927.9632	796.59564	-528.65765	878.33698	755.5542	-442.81311	857.48639	771.26141	-831.68353	1368.58667	1124.7644	-948.73688	1203.39966	1197.19629	-987.8114	1088.84473	1218.41309	-1024.1853	975.49731	1244.18652	-1017.42755	820.51593	1238.67883	-1076.29578	847.95587	1260.51355	-1076.06409	763.23962	1272.20129	-746.32092	911.60773	871.75775	-745.09283	929.85779	1093.29321	-901.74292	954.69745	901.5647	-896.24121	959.91632	1070.08154	-887.61816	615.1731	835.2959	-943.38629	459.68158	865.10382	-1095.70483	247.9823	885.64923	-1181.4762	101.43208	941.25085	-1225.922	107.90359	984.76276	-1056.25732	32.51746	954.64612	-724.14746	616.69366	1171.16174	-668.31915	505.7554	1142.01367	-621.51422	247.80544	1139.36731	-561.93896	70.08607	1098.20239	-584.94104	36.68355	1048.82776	-404.2641	77.52626	1110.61499	-817.6637	1661.96338	960.47003	NaN	NaN	NaN	NaN	NaN	NaN	NaN	NaN	NaN	NaN	NaN	NaN
